<?xml version="1.0" encoding="utf-8"?>
<!-- Generator: Adobe Illustrator 23.0.1, SVG Export Plug-In . SVG Version: 6.00 Build 0)  -->
<svg version="1.1" id="Layer_1" xmlns="http://www.w3.org/2000/svg" xmlns:xlink="http://www.w3.org/1999/xlink" x="0px" y="0px"
	 viewBox="0 0 342 108" style="enable-background:new 0 0 342 108;" xml:space="preserve">
<style type="text/css">
	.st0{fill:#B300FF;}
	.st1{fill:#E74C3C;}
	.st2{fill:#2ECC71;}
</style>
<g>
	<g id="surface348170">
		<path class="st0" d="M8,0C3.61,0,0,3.61,0,8v72c0,4.39,3.61,8,8,8h43.36c-1.38,4.83-3.12,9.83-6.54,16H38
			c-0.72-0.01-1.39,0.37-1.75,0.99c-0.37,0.62-0.37,1.39,0,2.02c0.36,0.62,1.03,1,1.75,0.99h56c0.72,0.01,1.39-0.37,1.75-0.99
			c0.37-0.62,0.37-1.39,0-2.02c-0.36-0.62-1.03-1-1.75-0.99h-6.82c-3.42-6.17-5.16-11.17-6.54-16H124c4.39,0,8-3.61,8-8V8
			c0-4.39-3.61-8-8-8H8z M8,4h116c2.23,0,4,1.77,4,4v72c0,2.23-1.77,4-4,4H8c-2.23,0-4-1.77-4-4V8C4,5.77,5.77,4,8,4z M66,68
			c-2.21,0-4,1.79-4,4s1.79,4,4,4s4-1.79,4-4S68.21,68,66,68z M10,70c-1.11,0-2,0.89-2,2s0.89,2,2,2s2-0.89,2-2S11.11,70,10,70z
			 M18,70c-1.11,0-2,0.89-2,2s0.89,2,2,2s2-0.89,2-2S19.11,70,18,70z M26,70c-1.11,0-2,0.89-2,2s0.89,2,2,2s2-0.89,2-2
			S27.11,70,26,70z M34,70c-1.11,0-2,0.89-2,2s0.89,2,2,2s2-0.89,2-2S35.11,70,34,70z M42,70c-1.11,0-2,0.89-2,2s0.89,2,2,2
			s2-0.89,2-2S43.11,70,42,70z M50,70c-1.11,0-2,0.89-2,2s0.89,2,2,2s2-0.89,2-2S51.11,70,50,70z M82,70c-1.11,0-2,0.89-2,2
			s0.89,2,2,2s2-0.89,2-2S83.11,70,82,70z M90,70c-1.11,0-2,0.89-2,2s0.89,2,2,2s2-0.89,2-2S91.11,70,90,70z M98,70
			c-1.11,0-2,0.89-2,2s0.89,2,2,2s2-0.89,2-2S99.11,70,98,70z M106,70c-1.11,0-2,0.89-2,2s0.89,2,2,2s2-0.89,2-2S107.11,70,106,70z
			 M114,70c-1.11,0-2,0.89-2,2s0.89,2,2,2s2-0.89,2-2S115.11,70,114,70z M122,70c-1.11,0-2,0.89-2,2s0.89,2,2,2s2-0.89,2-2
			S123.11,70,122,70z M55.46,88h21.07c1.32,4.77,3.2,9.98,6.31,16H49.16C52.26,97.98,54.14,92.77,55.46,88z"/>
	</g>
	<g id="surface348180">
		<path class="st1" d="M146.29,21.59c-3.65,0-6.65,2.99-6.65,6.65v63.14c0,1.21,0.36,2.34,0.93,3.32H133v4.98
			c0,4.57,3.74,8.31,8.31,8.31H254.3c4.57,0,8.31-3.74,8.31-8.31v-4.98h-7.58c0.58-0.98,0.93-2.11,0.93-3.32V28.24
			c0-3.65-2.99-6.65-6.65-6.65H146.29z M146.29,24.92h103.02c1.86,0,3.32,1.47,3.32,3.32v63.14c0,1.86-1.47,3.32-3.32,3.32h-39.88
			v3.32l-1.66-1.66c0,0.94-0.72,1.66-1.66,1.66H189.5c-0.94,0-1.66-0.72-1.66-1.66l-1.66,1.66v-3.32h-39.88
			c-1.86,0-3.32-1.47-3.32-3.32V28.24C142.97,26.38,144.44,24.92,146.29,24.92z M151.28,31.56c-0.92,0-1.66,0.75-1.66,1.66
			c0,0.92,0.75,1.66,1.66,1.66s1.66-0.75,1.66-1.66C152.94,32.31,152.19,31.56,151.28,31.56z M157.92,31.56
			c-0.92,0-1.66,0.75-1.66,1.66c0,0.92,0.75,1.66,1.66,1.66c0.92,0,1.66-0.75,1.66-1.66C159.59,32.31,158.84,31.56,157.92,31.56z
			 M164.57,31.56c-0.92,0-1.66,0.75-1.66,1.66c0,0.92,0.75,1.66,1.66,1.66s1.66-0.75,1.66-1.66
			C166.23,32.31,165.49,31.56,164.57,31.56z M171.22,31.56c-0.92,0-1.66,0.75-1.66,1.66c0,0.92,0.75,1.66,1.66,1.66
			s1.66-0.75,1.66-1.66C172.88,32.31,172.13,31.56,171.22,31.56z M177.86,31.56c-0.92,0-1.66,0.75-1.66,1.66
			c0,0.92,0.75,1.66,1.66,1.66c0.92,0,1.66-0.75,1.66-1.66C179.53,32.31,178.78,31.56,177.86,31.56z M184.51,31.56
			c-0.92,0-1.66,0.75-1.66,1.66c0,0.92,0.75,1.66,1.66,1.66s1.66-0.75,1.66-1.66C186.17,32.31,185.43,31.56,184.51,31.56z
			 M191.16,31.56c-0.92,0-1.66,0.75-1.66,1.66c0,0.92,0.75,1.66,1.66,1.66s1.66-0.75,1.66-1.66
			C192.82,32.31,192.07,31.56,191.16,31.56z M197.8,31.56c-0.92,0-1.66,0.75-1.66,1.66c0,0.92,0.75,1.66,1.66,1.66
			c0.92,0,1.66-0.75,1.66-1.66C199.47,32.31,198.72,31.56,197.8,31.56z M204.45,31.56c-0.92,0-1.66,0.75-1.66,1.66
			c0,0.92,0.75,1.66,1.66,1.66s1.66-0.75,1.66-1.66C206.11,32.31,205.37,31.56,204.45,31.56z M211.1,31.56
			c-0.92,0-1.66,0.75-1.66,1.66c0,0.92,0.75,1.66,1.66,1.66s1.66-0.75,1.66-1.66C212.76,32.31,212.01,31.56,211.1,31.56z
			 M217.74,31.56c-0.92,0-1.66,0.75-1.66,1.66c0,0.92,0.75,1.66,1.66,1.66c0.92,0,1.66-0.75,1.66-1.66
			C219.41,32.31,218.66,31.56,217.74,31.56z M224.39,31.56c-0.92,0-1.66,0.75-1.66,1.66c0,0.92,0.75,1.66,1.66,1.66
			s1.66-0.75,1.66-1.66C226.05,32.31,225.31,31.56,224.39,31.56z M231.04,31.56c-0.92,0-1.66,0.75-1.66,1.66
			c0,0.92,0.75,1.66,1.66,1.66s1.66-0.75,1.66-1.66C232.7,32.31,231.95,31.56,231.04,31.56z M237.68,31.56
			c-0.92,0-1.66,0.75-1.66,1.66c0,0.92,0.75,1.66,1.66,1.66s1.66-0.75,1.66-1.66C239.35,32.31,238.6,31.56,237.68,31.56z
			 M244.33,31.56c-0.92,0-1.66,0.75-1.66,1.66c0,0.92,0.75,1.66,1.66,1.66s1.66-0.75,1.66-1.66
			C245.99,32.31,245.25,31.56,244.33,31.56z M151.28,38.21c-0.92,0-1.66,0.75-1.66,1.66s0.75,1.66,1.66,1.66s1.66-0.75,1.66-1.66
			S152.19,38.21,151.28,38.21z M244.33,38.21c-0.92,0-1.66,0.75-1.66,1.66s0.75,1.66,1.66,1.66s1.66-0.75,1.66-1.66
			S245.25,38.21,244.33,38.21z M151.28,44.86c-0.92,0-1.66,0.75-1.66,1.66c0,0.92,0.75,1.66,1.66,1.66s1.66-0.75,1.66-1.66
			C152.94,45.6,152.19,44.86,151.28,44.86z M244.33,44.86c-0.92,0-1.66,0.75-1.66,1.66c0,0.92,0.75,1.66,1.66,1.66
			s1.66-0.75,1.66-1.66C245.99,45.6,245.25,44.86,244.33,44.86z M151.28,51.5c-0.92,0-1.66,0.75-1.66,1.66
			c0,0.92,0.75,1.66,1.66,1.66s1.66-0.75,1.66-1.66C152.94,52.25,152.19,51.5,151.28,51.5z M244.33,51.5
			c-0.92,0-1.66,0.75-1.66,1.66c0,0.92,0.75,1.66,1.66,1.66s1.66-0.75,1.66-1.66C245.99,52.25,245.25,51.5,244.33,51.5z
			 M151.28,58.15c-0.92,0-1.66,0.75-1.66,1.66s0.75,1.66,1.66,1.66s1.66-0.75,1.66-1.66S152.19,58.15,151.28,58.15z M244.33,58.15
			c-0.92,0-1.66,0.75-1.66,1.66s0.75,1.66,1.66,1.66s1.66-0.75,1.66-1.66S245.25,58.15,244.33,58.15z M151.28,64.8
			c-0.92,0-1.66,0.75-1.66,1.66s0.75,1.66,1.66,1.66s1.66-0.75,1.66-1.66S152.19,64.8,151.28,64.8z M244.33,64.8
			c-0.92,0-1.66,0.75-1.66,1.66s0.75,1.66,1.66,1.66s1.66-0.75,1.66-1.66S245.25,64.8,244.33,64.8z M151.28,71.44
			c-0.92,0-1.66,0.75-1.66,1.66s0.75,1.66,1.66,1.66s1.66-0.75,1.66-1.66S152.19,71.44,151.28,71.44z M244.33,71.44
			c-0.92,0-1.66,0.75-1.66,1.66s0.75,1.66,1.66,1.66s1.66-0.75,1.66-1.66S245.25,71.44,244.33,71.44z M151.28,78.09
			c-0.92,0-1.66,0.75-1.66,1.66s0.75,1.66,1.66,1.66s1.66-0.75,1.66-1.66S152.19,78.09,151.28,78.09z M244.33,78.09
			c-0.92,0-1.66,0.75-1.66,1.66s0.75,1.66,1.66,1.66s1.66-0.75,1.66-1.66S245.25,78.09,244.33,78.09z M151.28,84.74
			c-0.92,0-1.66,0.75-1.66,1.66s0.75,1.66,1.66,1.66s1.66-0.75,1.66-1.66S152.19,84.74,151.28,84.74z M244.33,84.74
			c-0.92,0-1.66,0.75-1.66,1.66s0.75,1.66,1.66,1.66s1.66-0.75,1.66-1.66S245.25,84.74,244.33,84.74z M136.32,98.03h48.88
			c0.73,1.84,2.2,3.32,4.29,3.32h16.62c2.09,0,3.56-1.49,4.29-3.32h48.88v1.66c0,2.77-2.21,4.98-4.98,4.98H141.31
			c-2.77,0-4.98-2.21-4.98-4.98V98.03z"/>
	</g>
	<g id="surface349100">
		<path class="st2" d="M276.84,34.55c-3.27,0-5.92,2.65-5.92,5.92v59.24c0,3.27,2.65,5.92,5.92,5.92h33.17
			c1.08,1.43,2.81,2.37,4.74,2.37h21.32c3.27,0,5.92-2.65,5.92-5.92V54.69c0-3.27-2.65-5.92-5.92-5.92h-8.29v-8.29
			c0-3.27-2.65-5.92-5.92-5.92H276.84z M276.84,36.92h45.02c1.95,0,3.55,1.6,3.55,3.55v8.29h-10.66c-3.27,0-5.92,2.65-5.92,5.92
			v47.39c0,0.4,0.04,0.81,0.12,1.18h-32.1c-1.95,0-3.55-1.6-3.55-3.55V40.47C273.29,38.52,274.89,36.92,276.84,36.92z M278.03,41.66
			c-1.31,0-2.37,1.06-2.37,2.37v47.39c0,1.31,1.06,2.37,2.37,2.37h27.62c0.66,0,1.18-0.53,1.18-1.18c0-0.65-0.53-1.18-1.18-1.18
			h-27.62V44.03h42.65v1.18c0,0.65,0.53,1.18,1.18,1.18c0.66,0,1.18-0.53,1.18-1.18v-1.18c0-1.31-1.06-2.37-2.37-2.37H278.03z
			 M314.75,51.13h21.32c1.95,0,3.55,1.6,3.55,3.55v3.55H311.2v-3.55C311.2,52.74,312.8,51.13,314.75,51.13z M320.68,53.5
			c-0.66,0-1.18,0.53-1.18,1.18c0,0.65,0.53,1.18,1.18,1.18h1.18c0.66,0,1.18-0.53,1.18-1.18c0-0.65-0.53-1.18-1.18-1.18H320.68z
			 M326.6,53.5c-0.66,0-1.18,0.53-1.18,1.18c0,0.65,0.53,1.18,1.18,1.18h3.55c0.66,0,1.18-0.53,1.18-1.18
			c0-0.65-0.53-1.18-1.18-1.18H326.6z M311.2,60.61h28.43v33.17H311.2V60.61z M281.58,84.31c-0.66,0-1.18,0.53-1.18,1.18v2.37
			c0,0.65,0.53,1.18,1.18,1.18c0.66,0,1.18-0.53,1.18-1.18v-2.37C282.76,84.84,282.24,84.31,281.58,84.31z M287.5,84.31
			c-0.66,0-1.18,0.53-1.18,1.18v2.37c0,0.65,0.53,1.18,1.18,1.18c0.66,0,1.18-0.53,1.18-1.18v-2.37
			C288.69,84.84,288.16,84.31,287.5,84.31z M293.43,84.31c-0.66,0-1.18,0.53-1.18,1.18v2.37c0,0.65,0.53,1.18,1.18,1.18
			s1.18-0.53,1.18-1.18v-2.37C294.61,84.84,294.08,84.31,293.43,84.31z M299.35,84.31c-0.66,0-1.18,0.53-1.18,1.18v2.37
			c0,0.65,0.53,1.18,1.18,1.18s1.18-0.53,1.18-1.18v-2.37C300.54,84.84,300.01,84.31,299.35,84.31z M305.27,84.31
			c-0.66,0-1.18,0.53-1.18,1.18v2.37c0,0.65,0.53,1.18,1.18,1.18c0.66,0,1.18-0.53,1.18-1.18v-2.37
			C306.46,84.84,305.93,84.31,305.27,84.31z M299.35,96.15c-1.31,0-2.37,1.06-2.37,2.37s1.06,2.37,2.37,2.37s2.37-1.06,2.37-2.37
			S300.66,96.15,299.35,96.15z M311.2,96.15h28.43v5.92c0,1.95-1.6,3.55-3.55,3.55h-21.32c-1.54,0-2.86-0.99-3.34-2.37
			c-0.14-0.37-0.21-0.77-0.21-1.18V96.15z M325.41,98.52c-1.31,0-2.37,1.06-2.37,2.37s1.06,2.37,2.37,2.37s2.37-1.06,2.37-2.37
			S326.72,98.52,325.41,98.52z"/>
	</g>
</g>
</svg>
